<?xml version="1.0" encoding="utf-8"?><svg viewBox="0 0 98 74" xmlns="http://www.w3.org/2000/svg" xmlns:xlink="http://www.w3.org/1999/xlink"><style>:root>svg{display:none}:root>svg:target{display:block}</style><svg fill="none" viewBox="0 0 17 20" id="apple" xmlns="http://www.w3.org/2000/svg"><g fill="#6565EC"><path d="M5.818 19.064c-2.775-.016-5.07-5.68-5.07-8.565 0-4.712 3.535-5.744 4.897-5.744.614 0 1.27.241 1.848.455.404.149.822.302 1.055.302.14 0 .467-.13.757-.245.618-.246 1.386-.552 2.281-.552h.005c.669 0 2.695.147 3.914 1.977l.285.428-.41.31c-.588.443-1.658 1.25-1.658 2.85 0 1.895 1.212 2.624 1.795 2.974.257.155.523.314.523.663 0 .228-1.818 5.118-4.457 5.118-.646 0-1.103-.194-1.506-.365-.407-.173-.759-.323-1.34-.323-.294 0-.666.14-1.06.287-.54.201-1.149.43-1.84.43h-.019ZM11.866.42C11.935 2.9 10.162 4.62 8.39 4.51 8.1 2.534 10.161.42 11.866.42Z"/></g></svg><svg fill="none" viewBox="0 0 16 20" id="apple_product" xmlns="http://www.w3.org/2000/svg"><g fill="#1617DB"><path d="M5.2 19.313C2.427 19.297.13 13.633.13 10.75c0-4.712 3.536-5.744 4.898-5.744.614 0 1.27.241 1.848.454.404.15.822.303 1.055.303.139 0 .467-.13.757-.246.617-.245 1.386-.551 2.281-.551h.005c.669 0 2.695.147 3.913 1.976l.286.429-.411.31c-.587.443-1.657 1.25-1.657 2.85 0 1.895 1.212 2.623 1.795 2.974.257.154.523.314.523.663 0 .227-1.818 5.118-4.458 5.118-.646 0-1.102-.194-1.505-.365-.408-.174-.759-.323-1.34-.323-.294 0-.667.14-1.06.287-.54.201-1.15.43-1.841.43h-.018ZM11.249.67c.068 2.479-1.704 4.198-3.475 4.09C7.482 2.782 9.544.67 11.249.67Z"/></g></svg><svg fill="none" viewBox="0 0 12 21" id="facebook" xmlns="http://www.w3.org/2000/svg"><path d="M11.885.508h-3a5 5 0 0 0-5 5v3h-3v4h3v8h4v-8h3l1-4h-4v-3a1 1 0 0 1 1-1h3v-4Z" fill="#1B1919"/></svg><svg fill="none" viewBox="0 0 98 71" id="im" xmlns="http://www.w3.org/2000/svg"><g fill="#000" opacity=".1"><path d="M.047 28.708h20.818L6.986.951h20.819l13.878 27.757v41.637H.047V28.708ZM55.563 70.345V28.708H76.38L62.5.951h20.82l13.878 27.757v41.637H55.563Z"/></g></svg><svg fill="none" viewBox="0 0 23 23" id="instagram" xmlns="http://www.w3.org/2000/svg"><g stroke="#000" stroke-width="2" stroke-linecap="round" stroke-linejoin="round"><path d="M16.967 1.507h-10a5 5 0 0 0-5 5v10a5 5 0 0 0 5 5h10a5 5 0 0 0 5-5v-10a5 5 0 0 0-5-5Z" fill="#fff"/><path d="M15.966 10.877a4 4 0 1 1-7.913 1.174 4 4 0 0 1 7.913-1.174Z" fill="#fff"/><path d="M17.467 6.007h.01"/></g></svg><svg fill="none" viewBox="0 0 75 74" id="play" xmlns="http://www.w3.org/2000/svg"><g opacity=".5" filter="url(#fa)"><circle cx="37.748" cy="36.836" r="28.699" fill="#CFCFCF"/></g><g filter="url(#fb)"><mask id="fc" fill="#fff"><path d="M72.524 36.836c0 19.206-15.57 34.776-34.777 34.776-19.206 0-34.776-15.57-34.776-34.776 0-19.207 15.57-34.777 34.776-34.777 19.207 0 34.777 15.57 34.777 34.777Zm-62.555 0c0 15.341 12.437 27.778 27.778 27.778 15.342 0 27.779-12.437 27.779-27.778 0-15.342-12.437-27.779-27.779-27.779-15.341 0-27.778 12.437-27.778 27.779Z"/></mask><path d="M72.524 36.836c0 19.206-15.57 34.776-34.777 34.776-19.206 0-34.776-15.57-34.776-34.776 0-19.207 15.57-34.777 34.776-34.777 19.207 0 34.777 15.57 34.777 34.777Zm-62.555 0c0 15.341 12.437 27.778 27.778 27.778 15.342 0 27.779-12.437 27.779-27.778 0-15.342-12.437-27.779-27.779-27.779-15.341 0-27.778 12.437-27.778 27.779Z" fill="#EEE"/><path d="M72.524 36.836c0 19.206-15.57 34.776-34.777 34.776-19.206 0-34.776-15.57-34.776-34.776 0-19.207 15.57-34.777 34.776-34.777 19.207 0 34.777 15.57 34.777 34.777Zm-62.555 0c0 15.341 12.437 27.778 27.778 27.778 15.342 0 27.779-12.437 27.779-27.778 0-15.342-12.437-27.779-27.779-27.779-15.341 0-27.778 12.437-27.778 27.779Z" stroke="#CDCDCD" stroke-width="2" mask="url(#fc)"/></g><path d="m51.35 36.836-20.404 11.78v-23.56l20.404 11.78Z" fill="#1617DB"/><defs><filter id="fa" x="5.049" y="8.137" width="65.397" height="65.398" filterUnits="userSpaceOnUse" color-interpolation-filters="sRGB"><feFlood flood-opacity="0" result="BackgroundImageFix"/><feColorMatrix in="SourceAlpha" values="0 0 0 0 0 0 0 0 0 0 0 0 0 0 0 0 0 0 127 0" result="hardAlpha"/><feOffset dy="4"/><feGaussianBlur stdDeviation="2"/><feColorMatrix values="0 0 0 0 0 0 0 0 0 0 0 0 0 0 0 0 0 0 0.14 0"/><feBlend in2="BackgroundImageFix" result="effect1_dropShadow_93_52"/><feBlend in="SourceGraphic" in2="effect1_dropShadow_93_52" result="shape"/><feColorMatrix in="SourceAlpha" values="0 0 0 0 0 0 0 0 0 0 0 0 0 0 0 0 0 0 127 0" result="hardAlpha"/><feOffset dy="4"/><feGaussianBlur stdDeviation="2"/><feComposite in2="hardAlpha" operator="arithmetic" k2="-1" k3="1"/><feColorMatrix values="0 0 0 0 0 0 0 0 0 0 0 0 0 0 0 0 0 0 0.1 0"/><feBlend in2="shape" result="effect2_innerShadow_93_52"/></filter><filter id="fb" x=".971" y=".059" width="73.554" height="73.553" filterUnits="userSpaceOnUse" color-interpolation-filters="sRGB"><feFlood flood-opacity="0" result="BackgroundImageFix"/><feBlend in="SourceGraphic" in2="BackgroundImageFix" result="shape"/><feGaussianBlur stdDeviation="1" result="effect1_foregroundBlur_93_52"/></filter></defs></svg><svg fill="none" viewBox="0 0 23 19" id="twitter" xmlns="http://www.w3.org/2000/svg"><path d="M22.049.518a10.9 10.9 0 0 1-3.14 1.53 4.48 4.48 0 0 0-7.86 3v1a10.66 10.66 0 0 1-9-4.53s-4 9 5 13a11.64 11.64 0 0 1-7 2c9 5 20 0 20-11.5-.001-.279-.028-.557-.08-.83a7.72 7.72 0 0 0 2.08-3.67Z" fill="#1F1B1B"/></svg></svg>